<svg xmlns="http://www.w3.org/2000/svg" version="1.0" width="1024.000000pt" height="1024.000000pt" viewBox="0 0 1024.000000 1024.000000" preserveAspectRatio="xMidYMid meet">

<g transform="translate(0.000000,1024.000000) scale(0.100000,-0.100000)" fill="#000000" stroke="none">
<path d="M2898 6493 l-388 -3 0 -161 0 -162 435 8 c239 4 435 5 435 1 0 -3 -120 -167 -267 -363 -146 -197 -309 -415 -361 -485 -52 -71 -97 -128 -101 -128 -3 0 -29 60 -58 133 -164 419 -215 547 -310 787 -57 146 -114 289 -125 318 l-22 52 -187 0 -188 0 -29 -77 c-17 -43 -56 -145 -87 -228 -31 -82 -83 -217 -115 -300 -32 -82 -144 -375 -248 -650 -105 -275 -194 -508 -197 -517 -7 -17 6 -18 182 -18 l190 0 68 193 68 192 362 0 362 0 68 -192 69 -191 611 4 c335 3 649 5 698 4 l87 0 0 166 0 166 -449 -4 c-307 -2 -447 0 -442 7 4 5 32 42 63 80 30 39 122 158 204 265 83 107 257 334 387 503 l237 309 0 142 0 143 -67 6 c-38 4 -165 6 -283 5 -118 -2 -389 -4 -602 -5z m-935 -440 c3 -10 54 -153 115 -318 60 -165 113 -310 117 -322 l6 -23 -245 0 c-142 0 -246 4 -246 9 0 9 17 57 162 466 33 94 62 178 65 188 3 9 9 17 13 17 4 0 10 -8 13 -17z"/>
<path d="M4430 6464 c-6 -14 -10 -27 -10 -30 0 -2 -56 -164 -125 -359 -69 -195 -125 -357 -125 -360 0 -3 42 -5 93 -5 l93 0 25 78 25 77 135 0 134 0 24 -77 25 -78 93 0 c51 0 93 2 93 4 0 2 -50 143 -111 313 -61 169 -122 343 -137 386 l-26 77 -98 0 c-96 0 -99 -1 -108 -26z m120 -198 c0 -8 16 -65 35 -126 19 -61 35 -115 35 -118 0 -4 -36 -7 -80 -7 -47 0 -80 4 -80 10 0 23 74 255 82 255 4 0 8 -6 8 -14z"/>
<path d="M5020 6100 l0 -390 85 0 85 0 0 130 0 130 53 0 52 0 75 -130 75 -129 102 -1 102 0 -89 148 -88 147 26 14 c79 40 115 106 116 211 1 62 -4 85 -24 124 -57 111 -130 136 -392 136 l-178 0 0 -390z m370 225 c37 -19 50 -43 50 -94 0 -28 -7 -48 -24 -68 -23 -27 -29 -28 -125 -31 l-101 -4 0 106 0 106 85 0 c57 0 96 -5 115 -15z"/>
<path d="M5707 6483 c-4 -3 -7 -37 -7 -75 l0 -68 115 0 115 0 0 -315 0 -315 80 0 80 0 0 315 0 315 115 0 115 0 0 75 0 75 -303 0 c-167 0 -307 -3 -310 -7z"/>
<path d="M6430 6100 l0 -390 265 0 265 0 0 75 0 75 -180 0 -180 0 0 85 0 85 160 0 160 0 0 70 0 70 -160 0 -160 0 0 85 0 85 180 0 180 0 0 75 0 75 -265 0 -265 0 0 -390z"/>
<path d="M7110 6100 l0 -390 85 0 86 0 -3 245 c-2 134 0 241 3 237 3 -4 39 -80 80 -169 l74 -162 71 -1 71 0 41 93 c22 50 59 130 81 177 l40 85 1 -252 0 -253 80 0 80 0 0 390 0 390 -99 0 -98 0 -94 -220 c-85 -199 -109 -244 -109 -207 0 6 -23 62 -50 122 -28 61 -67 148 -87 195 -20 47 -40 91 -46 98 -6 8 -41 12 -108 12 l-99 0 0 -390z"/>
<path d="M8070 6100 l0 -390 80 0 80 0 0 390 0 390 -80 0 -80 0 0 -390z"/>
<path d="M8350 6487 c0 -3 61 -110 135 -240 l135 -235 0 -151 0 -151 80 0 80 0 0 152 0 151 135 235 c74 129 135 236 135 238 0 3 -41 3 -92 2 l-91 -3 -49 -90 c-27 -49 -64 -119 -83 -153 l-33 -64 -35 64 c-19 34 -57 104 -85 153 l-49 90 -92 3 c-50 1 -91 1 -91 -1z"/>
<path d="M4210 5385 l0 -75 176 -2 175 -3 -175 -243 -176 -243 0 -70 0 -69 286 2 286 3 1 73 2 72 -182 0 c-101 0 -183 3 -183 6 0 4 79 117 175 252 l175 245 0 64 0 63 -280 0 -280 0 0 -75z"/>
<path d="M4873 5448 c2 -7 62 -181 133 -385 l129 -373 96 0 96 0 51 143 c103 293 212 609 212 618 0 5 -38 9 -84 9 l-84 0 -94 -287 -94 -287 -78 240 c-42 131 -84 260 -92 287 l-16 47 -90 0 c-68 0 -89 -3 -85 -12z"/>
<path d="M5700 5075 l0 -385 270 0 270 0 0 70 0 70 -185 0 -185 0 0 85 0 85 160 0 160 0 0 75 0 75 -160 0 -160 0 0 80 0 80 178 0 178 0 0 75 -1 75 -262 0 -263 0 0 -385z"/>
<path d="M6370 5075 l0 -385 85 0 85 0 0 125 0 125 53 0 52 0 73 -125 74 -125 100 0 100 0 -20 33 c-11 17 -49 81 -85 141 l-65 109 46 31 c66 44 97 108 97 201 -1 127 -72 220 -185 244 -28 6 -132 11 -230 11 l-180 0 0 -385z m396 202 c28 -33 32 -83 9 -127 -19 -36 -63 -50 -162 -50 l-73 0 0 106 0 106 101 -4 c96 -3 102 -4 125 -31z"/>
<path d="M7110 5075 l0 -385 265 0 265 0 0 70 0 70 -180 0 -180 0 0 85 0 85 160 0 160 0 0 75 0 75 -160 0 -160 0 0 80 0 80 178 0 177 0 0 75 0 75 -262 0 -263 0 0 -385z"/>
<path d="M7735 5443 c4 -10 31 -88 60 -173 61 -178 168 -486 190 -545 l15 -41 92 3 c50 1 94 6 98 10 4 4 21 49 38 98 36 107 183 531 206 595 25 71 26 70 -68 70 -79 0 -85 -1 -91 -22 -4 -13 -45 -142 -93 -288 l-85 -265 -94 288 -95 287 -90 0 c-82 0 -89 -2 -83 -17z"/>
<path d="M1971 4177 c-47 -17 -76 -58 -75 -108 2 -54 31 -83 107 -104 80 -22 107 -39 107 -70 0 -58 -92 -75 -142 -25 -28 28 -88 43 -88 21 0 -19 48 -77 75 -90 42 -21 125 -18 163 5 61 35 79 127 33 168 -10 9 -56 29 -102 44 -71 23 -85 31 -87 50 -8 56 70 82 121 42 57 -45 105 -10 54 38 -42 39 -105 50 -166 29z"/>
<path d="M3314 4179 c-49 -14 -79 -54 -79 -105 0 -58 32 -90 111 -110 76 -20 104 -38 104 -69 0 -31 -35 -55 -78 -55 -25 0 -42 8 -62 30 -33 35 -80 42 -80 11 0 -36 47 -79 98 -90 83 -17 149 7 177 65 35 75 -11 143 -108 159 -88 15 -123 57 -81 99 23 23 87 21 109 -4 21 -23 75 -27 75 -6 0 25 -41 65 -78 76 -43 12 -66 12 -108 -1z"/>
<path d="M3675 4175 c-22 -8 -41 -15 -42 -15 -8 0 -33 -64 -33 -84 0 -63 35 -94 135 -120 82 -21 106 -55 65 -96 -34 -34 -122 -20 -135 22 -5 13 -16 18 -41 18 -38 0 -41 -8 -19 -50 40 -77 179 -88 247 -20 22 23 28 37 28 72 0 24 -7 53 -15 65 -14 20 -67 42 -138 57 -29 7 -67 39 -67 56 0 23 41 50 75 50 22 0 43 -8 55 -20 11 -11 33 -20 50 -20 34 0 34 0 18 35 -23 51 -114 76 -183 50z"/>
<path d="M5754 4179 c-43 -12 -75 -50 -81 -97 -8 -57 31 -97 112 -118 77 -20 105 -38 105 -69 0 -58 -92 -75 -142 -25 -19 20 -40 30 -59 30 -33 0 -34 -1 -15 -38 21 -41 46 -59 97 -72 88 -22 169 20 183 95 14 70 -22 104 -149 142 -49 15 -61 22 -63 41 -8 56 83 86 123 42 21 -23 75 -27 75 -6 0 25 -41 65 -78 76 -43 12 -66 12 -108 -1z"/>
<path d="M6165 4177 c-57 -23 -74 -38 -102 -84 -51 -88 -29 -215 48 -272 41 -30 112 -44 161 -30 59 15 85 35 116 88 54 91 29 215 -54 274 -46 32 -123 43 -169 24z m137 -73 c28 -25 48 -75 48 -119 0 -79 -44 -135 -112 -142 -34 -4 -50 0 -78 19 -83 56 -74 221 14 259 32 13 104 4 128 -17z"/>
<path d="M7925 4175 c-149 -53 -167 -280 -29 -365 57 -36 141 -33 197 6 58 41 87 95 87 164 0 98 -55 177 -138 200 -48 13 -68 12 -117 -5z m142 -79 c35 -32 37 -38 41 -104 4 -68 3 -71 -29 -107 -83 -89 -209 -31 -209 97 0 129 111 193 197 114z"/>
<path d="M8777 4175 c-21 -7 -40 -15 -41 -17 -25 -33 -36 -57 -36 -80 0 -63 37 -98 126 -118 65 -15 94 -35 94 -65 0 -63 -136 -75 -155 -13 -5 13 -16 18 -41 18 -38 0 -43 -13 -17 -50 24 -35 42 -47 91 -59 96 -25 182 29 182 114 0 61 -21 81 -120 113 -79 25 -85 29 -88 57 -5 37 19 55 70 55 27 0 41 -6 50 -20 15 -24 78 -29 78 -6 0 25 -41 65 -78 76 -48 13 -69 12 -115 -5z"/>
<path d="M1090 3984 l0 -196 113 3 c97 4 116 7 144 27 55 39 57 129 4 160 l-29 16 24 19 c18 14 24 28 24 58 0 85 -40 109 -185 109 l-95 0 0 -196z m210 115 c16 -29 4 -68 -23 -74 -12 -2 -42 -6 -67 -7 l-45 -3 -3 53 -3 52 65 0 c56 0 67 -3 76 -21z m2 -156 c22 -20 23 -51 1 -75 -12 -14 -31 -18 -80 -18 l-63 0 0 55 0 55 62 0 c43 0 67 -5 80 -17z"/>
<path d="M1482 4027 c2 -125 6 -158 21 -180 55 -85 223 -80 267 9 10 20 16 74 18 177 l4 147 -36 0 -36 0 0 -145 c0 -142 -1 -147 -25 -170 -30 -31 -83 -33 -116 -6 -23 18 -24 25 -27 170 l-3 151 -36 0 -35 0 4 -153z"/>
<path d="M2270 3985 l0 -195 35 0 35 0 0 195 0 195 -35 0 -35 0 0 -195z"/>
<path d="M2450 3985 l0 -195 35 0 34 0 3 133 3 132 88 -132 c85 -128 89 -133 122 -133 l35 0 0 195 0 195 -36 0 -36 0 4 -135 c2 -74 3 -135 2 -135 -1 0 -41 61 -90 135 -88 133 -89 135 -126 135 l-38 0 0 -195z"/>
<path d="M2890 3985 l0 -195 130 0 130 0 0 30 0 30 -100 0 -100 0 0 55 0 55 85 0 c84 0 85 0 85 25 0 25 -1 25 -85 25 l-85 0 0 55 0 55 100 0 100 0 0 30 0 30 -130 0 -130 0 0 -195z"/>
<path d="M4140 4176 c0 -2 23 -83 50 -180 28 -97 50 -183 50 -191 0 -11 11 -15 39 -15 l40 0 25 83 c14 45 33 110 42 145 10 35 20 57 24 50 4 -7 24 -73 45 -145 l38 -133 37 0 37 0 47 178 c26 97 50 185 52 195 4 14 -1 17 -28 17 l-34 0 -28 -107 c-52 -194 -48 -181 -56 -157 -5 12 -23 76 -40 143 l-33 121 -36 0 -37 0 -44 -150 -44 -151 -39 151 -40 150 -33 0 c-19 0 -34 -2 -34 -4z"/>
<path d="M4760 3985 l0 -195 130 0 130 0 0 30 0 30 -98 0 -99 0 -2 55 -2 55 86 0 c78 0 85 2 85 20 0 11 1 23 3 26 1 4 -36 7 -83 8 l-85 1 -1 53 -2 52 99 0 99 0 0 30 0 30 -130 0 -130 0 0 -195z"/>
<path d="M5122 3986 l-2 -196 95 0 c142 0 198 31 198 110 0 42 -24 80 -50 80 -18 0 -17 6 12 34 35 35 34 86 -4 128 -29 32 -30 33 -138 36 l-109 4 -2 -196z m196 122 c16 -16 15 -63 0 -76 -7 -5 -39 -12 -71 -14 l-57 -3 0 53 0 52 58 0 c32 0 63 -5 70 -12z m13 -169 c14 -14 18 -27 13 -42 -12 -41 -24 -47 -90 -47 l-64 0 0 55 0 55 60 0 c47 0 64 -4 81 -21z"/>
<path d="M6510 3985 l0 -195 120 0 120 0 0 30 0 30 -90 0 -90 0 0 165 0 165 -30 0 -30 0 0 -195z"/>
<path d="M6830 4038 c0 -163 11 -198 70 -232 46 -27 124 -27 170 0 56 32 64 61 68 227 l4 147 -36 0 -36 0 0 -145 c0 -142 -1 -147 -25 -170 -16 -17 -35 -25 -60 -25 -25 0 -44 8 -60 25 -24 23 -25 28 -25 170 l0 145 -35 0 -35 0 0 -142z"/>
<path d="M7240 4150 l0 -30 60 0 60 0 0 -165 0 -165 30 0 30 0 0 165 0 165 60 0 60 0 0 30 0 30 -150 0 -150 0 0 -30z"/>
<path d="M7630 3985 l0 -195 35 0 35 0 0 195 0 195 -35 0 -35 0 0 -195z"/>
<path d="M8280 3985 l0 -195 30 0 30 0 1 118 c1 64 1 123 0 130 -4 31 20 2 99 -118 84 -128 86 -130 123 -130 l37 0 0 195 0 195 -35 0 -35 0 0 -137 0 -138 -90 138 c-87 133 -91 137 -125 137 l-35 0 0 -195z"/>
</g>
</svg>